# xmcd
#
# Track frame offsets:
#	150
#	16222
#	27137
#	42729
#	58105
#	69848
#	84208
#	96251
#	116487
#	139316
#
# Disc length: 1981 seconds
#
# Revision: 0
# Processed by: cddbd v1.5.2PL0 Copyright (c) Steve Scherf et al.
# Submitted via: EasyCDDAExtractor 16.0.8.1
#
DISCID=7f07bb0a
DTITLE=West Coast Blues - Long Play
DYEAR=1900
DGENRE=Blues
TTITLE0=I Can't Be Satisfied
TTITLE1=Weeping Willow Blues
TTITLE2=Main Coal
TTITLE3=Big Boss Man
TTITLE4=A Woman, A Lower, A Friend
TTITLE5=Of Course I Do
TTITLE6=I've Got A Woman
TTITLE7=Ain't No Love In The Heart Of The City
TTITLE8=Caress My Baby
TTITLE9=Closing Session
EXTD=
EXTT0=
EXTT1=
EXTT2=
EXTT3=
EXTT4=
EXTT5=
EXTT6=
EXTT7=
EXTT8=
EXTT9=
PLAYORDER=
